{"title":"Faithless - Insomnia 1995 [akhiugo]","uid":4736749,"size":39172655,"categoryP":"video","categoryS":"music_videos","magnet":"?xt=urn:btih:3d7c8e0503fe0ae1f0275e591d57386fec9d37f1&amp;dn=Faithless+-+Insomnia+1995+%5Bakhiugo%5D&amp;tr=udp%3A%2F%2Ftracker.openbittorrent.com%3A80&amp;tr=udp%3A%2F%2Fopen.demonii.com%3A1337&amp;tr=udp%3A%2F%2Ftracker.coppersurfer.tk%3A6969&amp;tr=udp%3A%2F%2Fexodus.desync.com%3A6969","seeders":1,"leechers":0,"uploader":"akhiugo","files":-1,"time":1235363774,"description":"Insomnia is a song recorded by British dance group Faithless. Released as the band's second single, it became one of their most successful. It was released in 1995 and became a hit in Dance Charts while peaking at #27 in the UK in 1995 and #3 in 1996.\n\nGeneral\nComplete name                    : Faithless - Insomnia 1995.avi\nFormat                           : AVI\nFormat/Info                      : Audio Video Interleave\nFile size                        : 37.4 MiB\nDuration                         : 3mn 38s\nOverall bit rate                 : 1 436 Kbps\n\nVideo\nFormat                           : MPEG-4 Visual\nFormat profile                   : Streaming Video@L1\nFormat settings, BVOP            : Yes\nFormat settings, QPel            : No\nFormat settings, GMC             : No warppoints\nFormat settings, Matrix          : Default\nMuxing mode                      : Packed bitstream\nCodec ID                         : XVID\nCodec ID/Hint                    : XviD\nDuration                         : 3mn 38s\nBit rate                         : 1 232 Kbps\nWidth                            : 720 pixels\nHeight                           : 480 pixels\nDisplay aspect ratio             : 1.500\nFrame rate                       : 29.970 fps\nStandard                         : NTSC\nResolution                       : 24 bits\nColorimetry                      : 4:2:0\nScan type                        : Progressive\nBits/(Pixel*Frame)               : 0.119\nStream size                      : 32.1 MiB (86%)\nWriting library                  : XviD 1.2.0.dev45 (UTC 2006-07-10)\n\nAudio\nFormat                           : MPEG Audio\nFormat version                   : Version 1\nFormat profile                   : Layer 3\nCodec ID                         : 55\nCodec ID/Hint                    : MP3\nDuration                         : 3mn 38s\nBit rate mode                    : Constant\nBit rate                         : 192 Kbps\nChannel(s)                       : 2 channels\nSampling rate                    : 44.1 KHz\nResolution                       : 16 bits\nVideo delay                      : 26ms\nStream size                      : 4.99 MiB (13%)\nAlignment                        : Split accross interleaves\nInterleave, duration             : 33 ms (1.00 video frame)\nTitle                            : Audio Stream\nWriting library                  : LAME3.92\n\n\nPlease help your fellow pirates by seeding after download!","torrent":{"xt":"urn:btih:3d7c8e0503fe0ae1f0275e591d57386fec9d37f1","amp;dn":"Faithless+-+Insomnia+1995+%5Bakhiugo%5D","amp;tr":["udp%3A%2F%2Ftracker.openbittorrent.com%3A80","udp%3A%2F%2Fopen.demonii.com%3A1337","udp%3A%2F%2Ftracker.coppersurfer.tk%3A6969","udp%3A%2F%2Fexodus.desync.com%3A6969"],"infoHash":"3d7c8e0503fe0ae1f0275e591d57386fec9d37f1","infoHashBuffer":{"type":"Buffer","data":[61,124,142,5,3,254,10,225,240,39,94,89,29,87,56,111,236,157,55,241]},"announce":[],"urlList":[]}}